# xmcd
#
# Track frame offsets:
#   150
#   30463
#   48529
#   62459
#   76070
#   84584
#   104913
#   133115
#   151871
#   167831
#   186863
#   221179
#   246398
#
# Disc length: 3444 seconds
#
# Revision: 0
# Processed by: cddbd v1.5.2PL0 Copyright (c) Steve Scherf et al.
# Submitted via: uFREEDB ActiveX Control 1.5
#
DISCID=b30d720d
DTITLE=Reinivaldo Pinheiro - Temmm Ciênça Nesse Cigarro
DYEAR=2011
DGENRE=Latin
TTITLE0=Tem Ciênça Nesse Cigarro
TTITLE1=Poema de Marcílio
TTITLE2=Pinheiro do Araripe
TTITLE3=Canário da Primeira Rama
TTITLE4=Escutação de Meio de Feira
TTITLE5=Toin e o Fiscal
TTITLE6=Eu e Bibia
TTITLE7=A Briga na Procissão
TTITLE8=O Doido e o Ferro Velho
TTITLE9=A Semelhança do Saco com o Papo
TTITLE10=Minha Infância com os meus Pais
TTITLE11=Do Outro Lado de Lá
TTITLE12=A Maré Baixou
EXTD=
EXTT0=
EXTT1=
EXTT2=
EXTT3=
EXTT4=
EXTT5=
EXTT6=
EXTT7=
EXTT8=
EXTT9=
EXTT10=
EXTT11=
EXTT12=
PLAYORDER=
